HIERARCHY
ROOT Hips
{
	OFFSET 4.076200 -17.275196 43.303001
	CHANNELS 6 Xposition Yposition Zposition Zrotation Xrotation Yrotation
	JOINT Chest
	{
		OFFSET -0.689800 0.941999 5.341000
		CHANNELS 6 Xposition Yposition Zposition Zrotation Xrotation Yrotation
		JOINT Chest2
		{
			OFFSET 0.000000 0.000000 4.278900
			CHANNELS 6 Xposition Yposition Zposition Zrotation Xrotation Yrotation
			JOINT Neck
			{
				OFFSET 0.000000 0.000000 9.970299
				CHANNELS 6 Xposition Yposition Zposition Zrotation Xrotation Yrotation
				JOINT Head
				{
					OFFSET 0.000000 0.000002 2.173901
					CHANNELS 6 Xposition Yposition Zposition Zrotation Xrotation Yrotation
					End Site
					{
						OFFSET 0.000000 0.000000 6.488197
					}
				}
			}
			JOINT LeftCollar
			{
				OFFSET 2.472300 -0.285801 5.433899
				CHANNELS 6 Xposition Yposition Zposition Zrotation Xrotation Yrotation
				JOINT LeftShoulder
				{
					OFFSET 5.327700 0.000000 0.000000
					CHANNELS 6 Xposition Yposition Zposition Zrotation Xrotation Yrotation
					JOINT LeftElbow
					{
						OFFSET 0.000000 0.000000 -10.713001
						CHANNELS 6 Xposition Yposition Zposition Zrotation Xrotation Yrotation
						JOINT LeftWrist
						{
							OFFSET 0.000000 -0.000002 -13.396900
							CHANNELS 6 Xposition Yposition Zposition Zrotation Xrotation Yrotation
							End Site
							{
								OFFSET 0.000000 0.000000 -2.173901
							}
						}
					}
				}
			}
			JOINT RightCollar
			{
				OFFSET -2.589400 -1.358400 6.105000
				CHANNELS 6 Xposition Yposition Zposition Zrotation Xrotation Yrotation
				JOINT RightShoulder
				{
					OFFSET -4.580200 0.000000 0.000000
					CHANNELS 6 Xposition Yposition Zposition Zrotation Xrotation Yrotation
					JOINT RightElbow
					{
						OFFSET 0.000000 0.000000 -10.761101
						CHANNELS 6 Xposition Yposition Zposition Zrotation Xrotation Yrotation
						JOINT RightWrist
						{
							OFFSET 0.000000 -0.000002 -13.028500
							CHANNELS 6 Xposition Yposition Zposition Zrotation Xrotation Yrotation
							End Site
							{
								OFFSET 0.000000 0.000000 -2.173901
							}
						}
					}
				}
			}
		}
	}
	JOINT LeftHip
	{
		OFFSET 2.532500 0.486900 -2.489700
		CHANNELS 6 Xposition Yposition Zposition Zrotation Xrotation Yrotation
		JOINT LeftKnee
		{
			OFFSET 0.000000 -0.000002 -18.199398
			CHANNELS 6 Xposition Yposition Zposition Zrotation Xrotation Yrotation
			JOINT LeftAnkle
			{
				OFFSET 0.000000 -0.000002 -16.083900
				CHANNELS 6 Xposition Yposition Zposition Zrotation Xrotation Yrotation
				End Site
				{
					OFFSET 0.000000 -8.641399 0.000000
				}
			}
		}
	}
	JOINT RightHip
	{
		OFFSET -2.112700 -0.049900 -2.711102
		CHANNELS 6 Xposition Yposition Zposition Zrotation Xrotation Yrotation
		JOINT RightKnee
		{
			OFFSET 0.000000 -0.000002 -19.127298
			CHANNELS 6 Xposition Yposition Zposition Zrotation Xrotation Yrotation
			JOINT RightAnkle
			{
				OFFSET 0.000000 -0.000002 -14.874901
				CHANNELS 6 Xposition Yposition Zposition Zrotation Xrotation Yrotation
				End Site
				{
					OFFSET 0.000000 -8.198299 0.000000
				}
			}
		}
	}
}
MOTION
Frames: 10
Frame Time: 0.041667
-5.383698 37.628300 43.565102 -352.115513 0.946763 -3.236187 -0.689799 0.941994 5.340995 -7.837764 -6.311370 10.875821 -0.000002 0.000001 4.278908 -7.775345 -0.046322 -1.551823 -0.000001 -0.000004 9.970299 21.444912 12.217093 -4.942126 -0.000001 -0.000005 2.173899 3.966893 0.796141 4.626674 2.472300 -0.285807 5.433900 -16.595965 0.554644 -9.200682 5.327702 -0.000005 -0.000005 -54.038469 18.751101 -7.661480 0.000003 0.000000 -10.713002 -16.207429 -0.316893 3.995602 -0.000001 0.000001 -13.396893 170.382252 8.270018 135.144363 -2.589399 -1.358400 6.105001 -4.816804 -6.394417 28.291117 -4.580196 0.000002 0.000002 36.877930 -22.767980 117.099700 -0.000005 0.000000 -10.761098 -120.471642 -39.255464 -159.551757 -0.000005 -0.000001 -13.028501 46.534984 194.609534 177.173577 2.532502 0.486901 -2.489706 12.712842 -12.659323 -2.153155 0.000002 0.000001 -18.199392 -36.438328 57.707517 42.214595 -0.000000 0.000001 -16.083897 4.255449 42.607509 7.682980 -2.112699 -0.049900 -2.711107 0.368487 -6.074783 -0.947069 0.000001 -0.000002 -19.127302 506.514097 163.577826 -544.087733 -0.000001 0.000000 -14.874904 4.177534 35.720274 14.448142
-5.392099 37.505711 43.566402 -352.332084 1.026292 -3.230359 -0.689802 0.941997 5.340998 -7.648196 -6.343458 11.294896 -0.000001 -0.000007 4.278898 -7.965865 -0.038592 -1.587655 -0.000000 0.000002 9.970306 21.761821 11.996199 -5.746308 -0.000000 0.000004 2.173896 3.918720 0.954224 4.750635 2.472299 -0.285798 5.433903 -16.656635 0.519030 -9.503487 5.327700 -0.000001 0.000003 -54.746814 18.140166 -7.271448 0.000004 -0.000003 -10.712997 -16.176026 -0.267918 3.921647 -0.000003 -0.000001 -13.396900 171.216983 8.005243 134.929144 -2.589401 -1.358399 6.105006 -4.845253 -6.195197 27.901688 -4.580206 -0.000000 0.000000 37.687369 -23.134354 118.273413 -0.000000 0.000005 -10.761101 -120.639145 -39.063327 -159.619062 0.000002 -0.000003 -13.028504 45.311147 194.976766 179.033765 2.532500 0.486901 -2.489697 12.946731 -12.782499 -2.325022 -0.000001 -0.000004 -18.199404 -36.972576 57.784883 42.671952 0.000000 -0.000001 -16.083899 3.943914 42.889169 7.993329 -2.112701 -0.049900 -2.711101 0.452799 -6.019148 -0.999365 0.000000 0.000002 -19.127296 507.154223 163.480537 -544.107513 -0.000002 -0.000002 -14.874901 3.810437 35.494949 14.437705
-5.407799 37.391609 43.563503 -352.486529 1.398436 -3.050456 -0.689802 0.942004 5.340996 -7.510355 -6.721276 11.379298 0.000001 -0.000003 4.278901 -8.065824 -0.066637 -1.600567 0.000001 0.000000 9.970297 21.951907 11.876881 -6.436814 -0.000001 0.000004 2.173908 3.742637 1.085279 4.849090 2.472299 -0.285801 5.433903 -16.860701 0.868762 -9.313607 5.327699 -0.000002 -0.000003 -55.319256 17.642616 -7.457395 0.000001 -0.000003 -10.713003 -16.136269 -0.282852 4.014156 0.000008 -0.000005 -13.396906 172.161352 7.706935 134.709253 -2.589400 -1.358400 6.104995 -4.852812 -6.014475 27.633547 -4.580195 0.000001 -0.000016 38.031835 -23.132293 119.158852 0.000007 0.000001 -10.761091 -121.574949 -39.049786 -160.028040 -0.000005 -0.000001 -13.028496 43.940687 194.880146 180.124997 2.532498 0.486902 -2.489703 13.195827 -13.271365 -2.598812 -0.000001 -0.000003 -18.199400 -37.415442 57.930871 43.068615 -0.000001 -0.000001 -16.083902 3.663671 43.363768 8.004492 -2.112701 -0.049896 -2.711100 0.454996 -6.308062 -1.218149 0.000001 -0.000000 -19.127302 507.742165 163.323074 -544.115382 0.000003 -0.000004 -14.874901 3.481647 35.264345 14.420831
-5.423800 37.281109 43.559605 -352.606904 1.567307 -2.872035 -0.689800 0.941998 5.340992 -7.427288 -6.850859 11.552672 -0.000001 -0.000006 4.278904 -8.103229 -0.058194 -1.605012 -0.000000 -0.000001 9.970292 22.036909 11.690507 -7.124624 0.000000 0.000005 2.173900 3.668711 1.114946 4.901450 2.472299 -0.285802 5.433899 -17.122767 1.171124 -9.353809 5.327701 -0.000003 -0.000006 -55.630217 17.013644 -7.698400 -0.000004 -0.000004 -10.712996 -16.412600 -0.344152 4.134275 0.000003 0.000003 -13.396896 173.120406 7.429908 134.534509 -2.589401 -1.358401 6.105000 -4.894517 -5.933022 27.327722 -4.580195 -0.000000 -0.000011 38.197399 -23.104875 119.902250 0.000005 0.000000 -10.761111 -122.460716 -38.952009 -160.380997 -0.000000 -0.000005 -13.028503 42.952632 194.820177 180.911070 2.532501 0.486897 -2.489710 13.553731 -13.586799 -2.896802 0.000000 -0.000009 -18.199402 -37.820158 58.147996 43.346358 -0.000001 -0.000001 -16.083895 3.267049 43.787708 8.198384 -2.112699 -0.049900 -2.711111 0.539301 -6.369097 -1.436590 0.000001 -0.000002 -19.127302 508.109356 163.272120 -544.159532 -0.000001 0.000001 -14.874900 3.273850 35.092744 14.493277
-5.440899 37.173004 43.545605 -352.699139 1.819394 -2.628112 -0.689803 0.941995 5.341000 -7.380797 -7.062867 11.701736 0.000001 0.000000 4.278901 -8.169947 -0.055936 -1.616239 0.000000 -0.000002 9.970296 22.173203 11.447998 -7.919010 0.000001 0.000003 2.173893 3.637717 1.350529 5.030261 2.472299 -0.285802 5.433896 -17.359687 1.468093 -9.691585 5.327702 -0.000003 -0.000003 -55.934618 16.135979 -7.669194 -0.000001 -0.000005 -10.712994 -16.708683 -0.353547 4.149285 0.000001 -0.000000 -13.396892 174.054161 7.062582 134.308635 -2.589396 -1.358402 6.104991 -4.960596 -5.854641 27.099559 -4.580196 -0.000000 0.000001 38.541979 -23.564902 120.552238 0.000001 -0.000008 -10.761097 -122.621580 -38.861557 -160.415913 0.000000 -0.000005 -13.028507 41.961448 194.762134 182.105042 2.532500 0.486901 -2.489699 14.040819 -14.067571 -3.216628 -0.000001 -0.000004 -18.199392 -38.439540 58.425390 43.749059 0.000000 -0.000003 -16.083895 2.944028 44.247758 8.176729 -2.112701 -0.049900 -2.711098 0.692796 -6.510814 -1.711136 0.000001 -0.000007 -19.127300 507.946033 163.270153 -544.201387 0.000001 -0.000002 -14.874899 3.243082 35.131833 14.814600
-5.467100 37.068409 43.535004 -352.760774 1.963783 -2.386693 -0.689800 0.942006 5.340997 -7.372317 -7.138296 11.833532 0.000002 -0.000002 4.278903 -8.237613 0.086820 -1.611690 -0.000001 -0.000009 9.970288 22.215395 11.137096 -8.535131 -0.000000 0.000007 2.173895 3.664251 1.447352 5.146770 2.472297 -0.285808 5.433893 -17.338061 1.137015 -10.342476 5.327704 0.000003 -0.000001 -56.249972 15.247798 -7.320731 0.000000 -0.000000 -10.712999 -17.089137 -0.399371 4.209463 0.000004 -0.000003 -13.396894 174.662526 6.761785 134.078936 -2.589402 -1.358403 6.104993 -5.243835 -6.383588 26.894290 -4.580193 0.000000 -0.000006 39.003136 -23.579119 120.899635 0.000002 -0.000002 -10.761086 -123.267730 -38.863329 -160.534362 -0.000007 -0.000002 -13.028491 40.624657 194.847771 182.826583 2.532500 0.486902 -2.489705 14.354527 -14.383736 -3.574700 -0.000001 -0.000003 -18.199404 -39.457672 58.430431 44.505089 0.000000 0.000002 -16.083902 2.913595 44.553570 8.176893 -2.112700 -0.049896 -2.711109 0.831689 -6.564584 -2.013856 0.000001 -0.000001 -19.127298 507.366396 163.330095 -544.220730 0.000002 -0.000001 -14.874899 3.421723 35.269509 15.370678
-5.489699 36.970009 43.520199 -352.852162 2.289302 -2.067912 -0.689799 0.942000 5.340998 -7.327445 -7.464757 11.839514 -0.000002 -0.000001 4.278900 -8.203864 0.127057 -1.602269 0.000001 -0.000005 9.970294 22.072349 11.012169 -9.079686 0.000000 0.000002 2.173888 3.725315 1.555541 5.110193 2.472300 -0.285807 5.433899 -17.599075 1.403026 -10.657240 5.327699 -0.000002 0.000002 -56.214158 14.330592 -7.469951 -0.000004 -0.000001 -10.712996 -17.485086 -0.469110 4.329601 0.000001 -0.000001 -13.396895 175.311954 6.461478 133.859127 -2.589399 -1.358398 6.104998 -5.505537 -6.702710 26.671059 -4.580202 0.000002 0.000001 39.450882 -23.604692 121.331726 0.000003 0.000001 -10.761100 -123.357082 -38.828099 -160.315441 -0.000003 -0.000007 -13.028499 39.189959 194.757612 183.214210 2.532501 0.486903 -2.489701 14.883214 -14.986335 -3.913509 -0.000002 0.000000 -18.199404 -40.432121 58.682752 45.174045 0.000000 -0.000005 -16.083899 2.685542 44.862872 8.383662 -2.112698 -0.049895 -2.711098 0.968073 -6.808123 -2.360138 0.000001 -0.000002 -19.127300 507.127339 163.342417 -544.302802 0.000001 -0.000001 -14.874900 3.398133 35.359206 15.760919
-5.511502 36.877003 43.508804 -352.854567 2.441361 -1.872533 -0.689800 0.942006 5.340994 -7.363110 -7.619948 11.960981 0.000000 -0.000002 4.278909 -8.190389 0.161674 -1.596152 0.000000 -0.000003 9.970304 21.963373 10.992892 -9.552446 0.000000 0.000010 2.173902 3.885435 1.625784 5.039781 2.472298 -0.285802 5.433902 -17.895166 1.806029 -10.831714 5.327699 0.000005 -0.000002 -56.339973 13.489387 -7.797115 0.000001 0.000000 -10.712996 -17.497022 -0.579291 4.413116 0.000001 -0.000003 -13.396894 175.844190 6.417345 134.116529 -2.589400 -1.358404 6.105001 -5.671550 -6.766889 26.414374 -4.580199 -0.000000 -0.000005 40.099071 -23.805019 121.986058 0.000003 -0.000002 -10.761094 -123.509081 -38.925791 -160.271741 -0.000004 -0.000003 -13.028505 38.068213 194.772051 183.542961 2.532500 0.486904 -2.489707 15.423675 -15.421193 -4.146180 0.000000 -0.000001 -18.199392 -41.512141 58.956923 45.863566 0.000002 -0.000002 -16.083899 2.510636 45.098236 8.424336 -2.112701 -0.049895 -2.711107 1.117134 -6.823809 -2.600788 0.000002 -0.000004 -19.127296 507.316727 163.424625 -544.423123 -0.000001 -0.000002 -14.874900 3.106109 35.320131 15.863251
-5.534100 36.784203 43.490501 -352.912978 2.679103 -1.639402 -0.689800 0.941998 5.341003 -7.341878 -7.879992 12.004597 -0.000001 -0.000007 4.278899 -8.168851 0.195212 -1.595354 -0.000001 0.000003 9.970288 22.018139 10.956825 -10.105256 -0.000000 0.000001 2.173901 3.893671 1.786958 5.038610 2.472297 -0.285803 5.433894 -18.159907 2.063983 -10.966769 5.327702 -0.000002 -0.000002 -56.670660 12.691100 -7.895324 0.000002 0.000000 -10.712995 -17.184976 -0.574018 4.361428 0.000001 0.000003 -13.396894 176.164731 6.174642 133.947714 -2.589401 -1.358402 6.104996 -5.827439 -6.792486 26.170387 -4.580201 -0.000001 -0.000011 40.550840 -23.875437 122.538170 0.000003 -0.000004 -10.761112 -123.797848 -39.002521 -160.260786 -0.000003 -0.000005 -13.028504 36.831303 194.727846 184.108063 2.532500 0.486899 -2.489700 15.831342 -15.906334 -4.401164 -0.000000 0.000003 -18.199396 -42.859403 59.033892 46.863516 0.000001 -0.000001 -16.083899 2.536722 45.158776 8.804009 -2.112699 -0.049899 -2.711102 1.303095 -6.942486 -2.842938 0.000001 -0.000005 -19.127296 507.993298 163.331079 -544.512844 -0.000001 0.000003 -14.874901 2.580305 35.016700 15.600185
-5.555100 36.696301 43.481197 -352.922759 3.012053 -1.407268 -0.689802 0.942003 5.341002 -7.377550 -8.196079 12.048221 -0.000000 0.000002 4.278900 -8.237864 0.228142 -1.601238 0.000002 -0.000001 9.970292 22.098058 10.846288 -10.652492 -0.000000 -0.000004 2.173900 3.955134 1.975851 4.975363 2.472301 -0.285802 5.433902 -18.223522 2.168978 -11.183940 5.327700 -0.000000 -0.000003 -56.879551 11.867334 -8.069539 0.000003 -0.000003 -10.713001 -17.441127 -0.639747 4.445067 -0.000001 -0.000001 -13.396900 176.720927 5.850063 133.810004 -2.589395 -1.358403 6.104997 -6.044882 -6.937517 25.748112 -4.580198 0.000004 -0.000007 41.680826 -24.236134 123.489342 0.000007 0.000000 -10.761103 -123.294982 -38.976604 -160.020868 -0.000006 -0.000002 -13.028496 35.166161 194.828687 184.459135 2.532500 0.486906 -2.489702 16.236473 -16.488765 -4.613543 0.000000 -0.000009 -18.199396 -44.038673 59.160066 47.711993 -0.000001 0.000001 -16.083895 2.586000 45.275688 8.911097 -2.112701 -0.049896 -2.711094 1.321266 -7.194670 -3.098732 0.000001 0.000000 -19.127302 508.677136 163.171211 -544.570436 -0.000002 0.000001 -14.874900 2.324130 34.651080 15.379919
